# xmcd
#
# Track frame offsets:
#	150
#	12922
#	27657
#	48880
#	62577
#	73837
#	91635
#	98540
#	112770
#	128487
#	147572
#	159530
#	176180
#
# Disc length: 2569 seconds
#
# Revision: 1
# Processed by: cddbd v1.5.1PL0 Copyright (c) Steve Scherf et al.
# Submitted via: EasyCDDAExtractor 7.0.9.1
#
DISCID=a50a070d
DTITLE=Various Artist - El Condor Pasa
DYEAR=1900
DGENRE=Latin
TTITLE0=Tobi Gil, Enzo Merino - Amanecer
TTITLE1=D.R. - Kantu Del Sicuri
TTITLE2=T. Rice, A.L. Webber - No Llores Por Mi Agrentina
TTITLE3=A. Zaldivar - El Humahuaqueño - Carnavalito
TTITLE4=Tobi Gil, Enzo Merino - Aires de Chacarera
TTITLE5=José Marti - Guantanamera
TTITLE6=D.R. - Galopera
TTITLE7=Tobi Gil, Enro Merino e Macambira - Luz e Luar
TTITLE8=A. Robles - El Condor Pasa
TTITLE9=Tobi Gil - Añoranza De Mi Tierra
TTITLE10=Robes Pierre Simões e Pedro Luís - Pukop-Pukop Kesampicus
TTITLE11=D.R. - La Bamba
TTITLE12=D.R. - Mambo de Machaguay
EXTD=
EXTT0=
EXTT1=
EXTT2=
EXTT3=
EXTT4=
EXTT5=
EXTT6=
EXTT7=
EXTT8=
EXTT9=
EXTT10=
EXTT11=
EXTT12=
PLAYORDER=
